PathFileType	4	(X/Y/Z)	/Users/niels/Desktop/University/Third Semester/Perception and Action/Exam/Gymnastics Motion Tracking/Code for Gym Tracking/Scripts/Analyzed Data/Start Salto/st_salto_good_id12_1_Sports2D/st_salto_good_id12_1_Sports2D_px_person00.trc
DataRate	CameraRate	NumFrames	NumMarkers	Units	OrigDataRate	OrigDataStartFrame	OrigNumFrames
29.83050847457627	29.83050847457627	10	22	m	29.83050847457627	22	177
Frame#	Time	Hip			RHip			RKnee			RAnkle			RBigToe			RSmallToe			RHeel			LHip			LKnee			LAnkle			LBigToe			LSmallToe			LHeel			Neck			Head			Nose			RShoulder			RElbow			RWrist			LShoulder			LElbow			LWrist		
		X1	Y1	Z1	X2	Y2	Z2	X3	Y3	Z3	X4	Y4	Z4	X5	Y5	Z5	X6	Y6	Z6	X7	Y7	Z7	X8	Y8	Z8	X9	Y9	Z9	X10	Y10	Z10	X11	Y11	Z11	X12	Y12	Z12	X13	Y13	Z13	X14	Y14	Z14	X15	Y15	Z15	X16	Y16	Z16	X17	Y17	Z17	X18	Y18	Z18	X19	Y19	Z19	X20	Y20	Z20	X21	Y21	Z21	X22	Y22	Z22
22	0.7375	0.3710494677584761	-0.5421545500689583	0.0	0.3575683552738021	-0.5441241083462219	0.0	0.47763715481937397	-0.6412069799526544	0.0	0.5139819361241832	-0.792410609054849	0.0	0.5847359252439236	-0.7985765132754049	0.0	0.5677023059510539	-0.8070990466194989	0.0	0.5064238629150988	-0.8125352563939974	0.0	0.3945328219308435	-0.5435168499555104	0.0	0.5037492782781107	-0.6424285869704801	0.0	0.5477152542961893	-0.7807253255215579	0.0	0.6122202722058404	-0.7913942549165978	0.0	0.6058525354298676	-0.788108014436269	0.0	0.5450252223005418	-0.8021985020227959	0.0	0.4530700834677253	-0.3882347481777313	0.0	0.5094770496723176	-0.31451468186416554	0.0	0.5132804277165792	-0.3695613057203819	0.0	0.42413980889991165	-0.3846370855973879	0.0	0.48152699894845646	-0.4068966053451916	0.0	0.5654174925222228	-0.37142798279053635	0.0	0.47313623980514924	-0.40784961124464797	0.0	0.5567315843400074	-0.43852095151081777	0.0	0.6389429015647649	-0.4253645833049682	0.0
23	0.7710227272727272	0.402500585183692	-0.5535197777712706	0.0	0.38939921122670684	-0.556976311372777	0.0	0.5033500094517034	-0.6583133083888258	0.0	0.5302319125886796	-0.8095606538525992	0.0	0.5990838878639455	-0.8194487973266035	0.0	0.5827188147127335	-0.826639292850164	0.0	0.5210277969693232	-0.8281460161373273	0.0	0.4249007889249681	-0.5560959856968435	0.0	0.5278423292181508	-0.65847469166709	0.0	0.562842800461832	-0.7989693557215609	0.0	0.624187704798178	-0.8122755817371606	0.0	0.618386354496175	-0.8082849451250309	0.0	0.5582442666651335	-0.8182968770983242	0.0	0.47707245001099696	-0.3943380674093112	0.0	0.5324579786997303	-0.3233163354233221	0.0	0.5373247659005348	-0.3766498301525547	0.0	0.4494276035554185	-0.39218099987612964	0.0	0.5160615013820482	-0.40723048478869267	0.0	0.5902624663491693	-0.35931408468101544	0.0	0.4956558840211675	-0.41453952193858845	0.0	0.582814004913573	-0.4376342760806302	0.0	0.6623168332820693	-0.4116940908495979	0.0
24	0.8045454545454546	0.4307512471689656	-0.563329037194944	0.0	0.41823298983900586	-0.5683148842388445	0.0	0.5259409140630096	-0.6735599888800999	0.0	0.5419163986694977	-0.8239787395627547	0.0	0.6084390704125736	-0.836764543927483	0.0	0.5932175352754864	-0.8427073692323245	0.0	0.5314974634659194	-0.840919466191731	0.0	0.4519908282138133	-0.567044800057963	0.0	0.548902258494021	-0.6715767669060404	0.0	0.572097213535337	-0.8146674970382162	0.0	0.6297942138284022	-0.8296764873778266	0.0	0.6243243501403857	-0.8254546718178906	0.0	0.5653171904689369	-0.8318891088041669	0.0	0.49908096970549587	-0.39939640443236235	0.0	0.5536170784229438	-0.3306005275303623	0.0	0.5587927150104888	-0.38177751272625826	0.0	0.4728632399082875	-0.3987323693589969	0.0	0.546991973239684	-0.4076665524641551	0.0	0.6113806084592597	-0.3501499403557212	0.0	0.5164256921982618	-0.4198100590537788	0.0	0.6058114057475728	-0.4364106184512303	0.0	0.681697968616669	-0.40008218532344886	0.0
25	0.8380681818181819	0.4556313066405625	-0.5710783294577916	0.0	0.44382797665156504	-0.5773397827044896	0.0	0.5453294173836146	-0.6863427361512654	0.0	0.5495118283914606	-0.835277579519927	0.0	0.6133069818955118	-0.8500284377520261	0.0	0.5995848737343964	-0.8548682613877309	0.0	0.5382661605923181	-0.8505601016249983	0.0	0.47572423204149744	-0.5756929093353745	0.0	0.5670772551746334	-0.6815506812387553	0.0	0.5767807086177235	-0.8270756609473827	0.0	0.6311473099911504	-0.842721941431114	0.0	0.6255546913654847	-0.8386997756920581	0.0	0.5676656637387394	-0.842386509084293	0.0	0.5193071437876893	-0.4035204726479486	0.0	0.573733074955636	-0.336214776049403	0.0	0.578250073855311	-0.3850048752421298	0.0	0.4949184019535562	-0.4038724077579694	0.0	0.5750680360105255	-0.4081780119321882	0.0	0.6307621589345613	-0.34393275975118626	0.0	0.5356807085811032	-0.4234178202291194	0.0	0.6261140725891726	-0.43434311779813717	0.0	0.6980618381828358	-0.39021354916901474	0.0
26	0.8715909090909091	0.4772690658085249	-0.576492003188758	0.0	0.4661711391810295	-0.5836012264954056	0.0	0.5616541187490617	-0.6963189390991665	0.0	0.5540718778715853	-0.8434314483859712	0.0	0.6146652558806529	-0.8593450198976567	0.0	0.6023845617464167	-0.863306141567327	0.0	0.5422535729244214	-0.8571900874498264	0.0	0.49641606123229837	-0.5817114039947182	0.0	0.5827317064099186	-0.6887314295294902	0.0	0.5786784325093324	-0.8358795562246161	0.0	0.630897011023019	-0.8512920363945292	0.0	0.6245997874269725	-0.8477259514279676	0.0	0.5672241501614955	-0.8496744825080976	0.0	0.5380510282323222	-0.40667646605944885	0.0	0.5935759740334022	-0.34036155020222775	0.0	0.5963292774247221	-0.38676376373610044	0.0	0.5158704237380228	-0.4073166967944787	0.0	0.6011093614818429	-0.4087202593929876	0.0	0.6502390686698004	-0.34036843648096726	0.0	0.5534560029027573	-0.4251421760658417	0.0	0.6442423933044815	-0.4309521493088148	0.0	0.7122583577570107	-0.38134996172252417	0.0
27	0.9051136363636364	0.49587032700662687	-0.5794964514780964	0.0	0.4854166129692008	-0.5870042840137168	0.0	0.5751931323114082	-0.7032649617818051	0.0	0.5567178120678067	-0.8485110227961393	0.0	0.6136469121342849	-0.8649854917087243	0.0	0.6022464580836949	-0.8684089995964641	0.0	0.5443820742303931	-0.8610580016705391	0.0	0.5143990505623272	-0.585083673652094	0.0	0.5960699432085912	-0.6935861446161894	0.0	0.579368241320055	-0.8410384354063758	0.0	0.6308450433219418	-0.8557279630219052	0.0	0.6234540788128607	-0.8526899680689791	0.0	0.5657614082845343	-0.8538675979534693	0.0	0.5555455849216149	-0.40866768931225717	0.0	0.6134823388594761	-0.34334558893624434	0.0	0.6134460953454496	-0.38755071220550463	0.0	0.5357203263161853	-0.4089642033468279	0.0	0.625502161838157	-0.40924412343319994	0.0	0.6709517310967792	-0.3391191023055094	0.0	0.5694918307119202	-0.4249610089088596	0.0	0.6604472729322743	-0.4262799237403057	0.0	0.7248138441615483	-0.3730765274624796	0.0
28	0.9386363636363637	0.51171391424918	-0.5801710239302902	0.0	0.5019226054663588	-0.5876797322745194	0.0	0.586294119345903	-0.7070820447840499	0.0	0.5582872795092749	-0.8506167223546839	0.0	0.6114456946502392	-0.867294362384231	0.0	0.6001461871412092	-0.8706029426700366	0.0	0.5452745524083079	-0.8624260500191049	0.0	0.5298748115009265	-0.5859841835251179	0.0	0.6071228081023264	-0.6965314069199161	0.0	0.5797696763372376	-0.8427916466382365	0.0	0.6313517397470673	-0.8566994037936521	0.0	0.622958105957625	-0.8541338985413819	0.0	0.5642635406999473	-0.8552516798961805	0.0	0.5719220272050595	-0.4092682534399066	0.0	0.6332781301294269	-0.3453968473262878	0.0	0.6297776095690104	-0.38776080206875474	0.0	0.5543517283703666	-0.40890690614062536	0.0	0.6481417064474061	-0.40967658600785384	0.0	0.6930478195957274	-0.3397680465885192	0.0	0.5835501142621431	-0.4230904775895255	0.0	0.6747332434526505	-0.42096995935391157	0.0	0.7360840611646685	-0.36564342164595853	0.0
29	0.9721590909090909	0.5253114097467118	-0.5787131811688871	0.0	0.5162843906850061	-0.5858471992480752	0.0	0.5953540371340633	-0.7079381576379921	0.0	0.5592715530288124	-0.8500517764568972	0.0	0.6091806151190087	-0.8669109225738112	0.0	0.5974303579502529	-0.8704740994512629	0.0	0.5452515481636833	-0.8616694293672821	0.0	0.5430828104241554	-0.5846384813380359	0.0	0.6160174603074816	-0.6979215337953426	0.0	0.580194010922049	-0.841742349844291	0.0	0.631892797087073	-0.8552407194055268	0.0	0.6230289675436225	-0.8529958250274436	0.0	0.5629382948108798	-0.8543264902356278	0.0	0.5873325897752003	-0.4083814207606561	0.0	0.6526658156940632	-0.34672008452674896	0.0	0.6455243160710008	-0.38769496654097657	0.0	0.5718191176013133	-0.40738158812138975	0.0	0.6688424225804325	-0.4099620355906975	0.0	0.7157410632112244	-0.34171543907631596	0.0	0.5958197384562238	-0.4198299321309919	0.0	0.687255370038031	-0.41590075447386593	0.0	0.7465952650596416	-0.35971790518407937	0.0
30	1.0056818181818181	0.5374064371050783	-0.5753735324711248	0.0	0.5292269269784667	-0.5817307951981991	0.0	0.6027424982490514	-0.7062626007983668	0.0	0.5598879348709168	-0.8473322329168429	0.0	0.607486161586096	-0.864764930740734	0.0	0.5952304219787097	-0.8687699077184384	0.0	0.5444438160163066	-0.8592631914579544	0.0	0.554486993179195	-0.5812196448113274	0.0	0.6230731459128926	-0.6979128766185552	0.0	0.5806515053026243	-0.8386793500372214	0.0	0.631776088002854	-0.8525707691919908	0.0	0.6231618564300925	-0.8504199304265359	0.0	0.5617076944236267	-0.8516645021317298	0.0	0.6021189851983852	-0.4060108728459559	0.0	0.6716252846772091	-0.3475468523568952	0.0	0.6610906253634907	-0.3875791851256031	0.0	0.5885320890504259	-0.4046317172203107	0.0	0.6877820773562284	-0.41017413613374515	0.0	0.7381286433481776	-0.3444622629798294	0.0	0.6069250397962743	-0.41535093128964756	0.0	0.6985351474662203	-0.41169992664878124	0.0	0.7571803225744383	-0.35582413288182624	0.0
31	1.0392045454545455	0.5487870119177626	-0.5703753750334448	0.0	0.5414228808354552	-0.5755435789276635	0.0	0.6086808478451874	-0.7025911217568462	0.0	0.5601990051418105	-0.8429773651965796	0.0	0.6062556649343351	-0.8617668799568725	0.0	0.5938490063409583	-0.8661699098727297	0.0	0.5429711106071675	-0.8556262568099766	0.0	0.5647826904711175	-0.5758407197338915	0.0	0.6286789464480443	-0.696400392332571	0.0	0.5811426448634712	-0.8342121463324931	0.0	0.6305990852049242	-0.8496445294682614	0.0	0.6228719874860211	-0.8473262155650612	0.0	0.5606696971493943	-0.8476916057755293	0.0	0.6168612451242349	-0.4021257606064993	0.0	0.6905747099256841	-0.3480234641969625	0.0	0.6770147191862913	-0.38747724259558586	0.0	0.6052083680263881	-0.4007329074885708	0.0	0.7056271180548228	-0.41045615440533045	0.0	0.7601223552136972	-0.3478987595388482	0.0	0.6177446820250355	-0.40962908622530975	0.0	0.7094605796996416	-0.40853719042245606	0.0	0.7688320439869288	-0.35401524547406593	0.0
